<?xml version="1.0" standalone="no"?>
<!DOCTYPE svg PUBLIC "-//W3C//DTD SVG 20010904//EN"
 "http://www.w3.org/TR/2001/REC-SVG-20010904/DTD/svg10.dtd">
<svg version="1.0" xmlns="http://www.w3.org/2000/svg"
 width="740.000000pt" height="600.000000pt" viewBox="0 0 740.000000 600.000000"
 preserveAspectRatio="xMidYMid meet">

<g transform="translate(0.000000,600.000000) scale(0.100000,-0.100000)"
fill="#FFF" stroke="none">
<path d="M2175 5864 c-16 -2 -79 -9 -140 -15 -699 -68 -1250 -327 -1354 -636
-21 -62 -21 -72 -19 -975 l3 -912 60 -13 c110 -22 353 -35 535 -29 455 17 824
68 1285 175 l120 28 5 464 5 464 26 45 c96 162 373 294 765 364 239 43 391 54
566 44 405 -24 667 -102 788 -235 153 -167 106 -377 -123 -548 -88 -67 -317
-200 -483 -282 -316 -157 -805 -326 -1309 -451 -636 -159 -817 -192 -1295
-239 -252 -24 -697 -24 -845 0 -263 43 -410 119 -468 240 l-15 31 -21 -25
c-12 -13 -55 -68 -96 -121 l-75 -96 0 -101 c0 -120 -21 -102 200 -165 303 -86
631 -143 1030 -178 192 -17 911 -17 1130 0 454 35 707 66 1193 147 523 87
1208 242 1872 422 132 36 249 67 260 70 11 3 65 19 120 35 55 16 138 40 185
53 47 13 155 44 240 70 85 25 193 57 240 71 146 43 725 226 730 230 20 20 27
438 9 575 -43 336 -137 573 -316 792 -182 222 -486 407 -848 515 -101 30 -263
70 -331 81 -33 5 -97 16 -144 24 -453 78 -683 87 -2190 85 -696 0 -1278 -3
-1295 -4z"/>
<path d="M4570 2883 c-308 -21 -559 -51 -815 -97 -174 -32 -251 -48 -257 -54
-4 -4 -4 -28 0 -52 l7 -45 90 -7 c364 -30 553 -58 795 -120 456 -114 750 -309
883 -583 24 -49 52 -123 62 -162 l17 -73 974 0 974 0 -2 408 -3 407 -140 47
c-506 169 -1047 276 -1635 323 -165 13 -799 19 -950 8z"/>
<path d="M660 2120 l0 -430 1005 0 1005 0 0 430 0 430 -1005 0 -1005 0 0 -430z"/>
<path d="M610 890 l0 -560 3350 0 3350 0 0 560 0 560 -3350 0 -3350 0 0 -560z
m1525 427 c126 -56 181 -213 121 -343 -20 -44 -43 -67 -105 -111 -3 -2 5 -13
16 -26 25 -27 42 -61 78 -152 15 -38 33 -84 41 -102 17 -38 18 -85 2 -101 -7
-7 -40 -12 -79 -12 l-67 0 -43 127 c-63 191 -109 227 -277 221 l-77 -3 -3
-160 c-2 -136 -5 -162 -19 -172 -21 -16 -115 -17 -131 -1 -18 18 -17 829 1
847 9 10 68 12 257 9 207 -3 251 -6 285 -21z m919 7 c22 -21 21 -102 -1 -126
-15 -16 -36 -18 -240 -18 l-223 0 0 -90 0 -90 208 0 c114 0 213 -4 221 -9 17
-11 26 -110 12 -131 -8 -12 -48 -16 -226 -18 l-215 -3 0 -105 0 -104 232 0
c268 0 268 0 268 -81 0 -80 3 -79 -336 -79 -161 0 -299 3 -308 6 -14 5 -16 52
-16 423 0 311 3 420 12 429 9 9 90 12 304 12 253 0 295 -2 308 -16z m750 -6
c9 -12 16 -38 16 -58 0 -20 -7 -46 -16 -58 -15 -22 -20 -22 -220 -22 l-205 0
3 -92 3 -93 174 -3 c108 -1 180 -7 188 -13 8 -7 13 -33 13 -64 0 -31 -5 -57
-13 -64 -8 -6 -80 -12 -188 -13 l-174 -3 -5 -166 c-6 -193 -8 -199 -82 -199
-95 0 -88 -36 -88 433 0 308 3 416 12 425 9 9 87 12 289 12 276 0 278 0 293
-22z m533 -25 c18 -43 102 -245 123 -298 4 -11 20 -51 35 -90 16 -38 32 -74
37 -79 4 -6 8 -16 8 -23 0 -7 9 -32 19 -56 46 -102 91 -221 91 -238 0 -28 -34
-40 -102 -37 l-61 3 -45 118 -45 117 -144 0 c-78 0 -146 0 -150 1 -4 0 -26
-50 -49 -111 -23 -62 -46 -116 -52 -122 -5 -5 -38 -8 -73 -6 -102 5 -104 -7
59 418 77 201 148 384 157 408 l17 42 77 0 78 0 20 -47z m601 20 c16 -45 66
-196 127 -386 32 -98 61 -175 65 -170 5 4 50 137 101 296 l93 287 90 0 c60 -1
97 -5 109 -14 16 -12 17 -44 17 -417 0 -222 -4 -410 -9 -418 -12 -18 -102 -26
-130 -12 -21 11 -21 16 -21 258 0 142 -4 243 -9 238 -5 -6 -46 -122 -91 -258
l-82 -248 -71 3 -71 3 -85 255 -86 255 -5 -247 c-3 -135 -8 -250 -12 -254 -13
-13 -105 -17 -127 -5 -21 12 -21 13 -21 424 0 308 3 416 12 425 8 8 46 12 104
12 91 0 92 0 102 -27z m920 15 c9 -9 12 -117 12 -425 0 -397 -1 -413 -19 -423
-27 -14 -114 -13 -129 2 -17 17 -17 829 0 846 7 7 37 12 68 12 31 0 61 -5 68
-12z m618 -13 c14 -21 15 -62 12 -337 -3 -270 -6 -320 -22 -362 -42 -115 -96
-151 -231 -151 -108 0 -153 18 -201 82 -38 50 -62 141 -48 181 9 25 14 27 76
30 74 3 80 -1 92 -69 10 -58 54 -86 106 -68 53 19 55 27 58 374 2 203 7 324
14 332 6 8 34 13 69 13 51 0 61 -3 75 -25z"/>
<path d="M1740 1081 l0 -109 125 -1 c181 -3 232 16 242 88 8 58 -3 89 -40 111
-28 17 -51 20 -179 20 l-148 0 0 -109z"/>
<path d="M4230 1107 c0 -9 -18 -65 -40 -123 -22 -59 -40 -111 -40 -115 0 -5
43 -9 96 -9 73 0 95 3 91 13 -3 6 -24 62 -47 122 -43 112 -60 143 -60 112z"/>
</g>
</svg>
